<svg width="30" height="25" viewBox="0 0 30 25" fill="none" xmlns="http://www.w3.org/2000/svg">
<path d="M28 11.5H27.58L26.33 17H11.33L6.75999 2.52999C6.71056 2.37645 6.62472 2.23714 6.50979 2.12396C6.39487 2.01077 6.25427 1.92707 6.09999 1.87999L1.99999 0.619987C1.87392 0.581247 1.74145 0.567717 1.61016 0.580171C1.47886 0.592624 1.3513 0.630817 1.23476 0.692568C0.999404 0.81728 0.823227 1.03038 0.744988 1.28499C0.666749 1.53959 0.692858 1.81486 0.817569 2.05021C0.942281 2.28557 1.15538 2.46175 1.40999 2.53999L4.99999 3.63999L9.58999 18.14L7.94999 19.48L7.81999 19.61C7.41432 20.0775 7.18439 20.6718 7.16979 21.2906C7.15518 21.9094 7.35683 22.5139 7.73999 23C8.01255 23.3314 8.3589 23.5945 8.75133 23.7682C9.14376 23.9418 9.57138 24.0212 9.99999 24H26.69C26.9552 24 27.2096 23.8946 27.3971 23.7071C27.5846 23.5196 27.69 23.2652 27.69 23C27.69 22.7348 27.5846 22.4804 27.3971 22.2929C27.2096 22.1053 26.9552 22 26.69 22H9.83999C9.72484 21.9961 9.61264 21.9625 9.51425 21.9025C9.41585 21.8426 9.33458 21.7583 9.27828 21.6577C9.22199 21.5572 9.19257 21.4439 9.19286 21.3286C9.19316 21.2134 9.22317 21.1002 9.27999 21L11.69 19H27.13C27.3611 19.0056 27.5871 18.931 27.7695 18.7888C27.9518 18.6466 28.0792 18.4456 28.13 18.22L29.7 11.31C29.1424 11.4379 28.572 11.5016 28 11.5Z" fill="black"/>
</svg>
